<svg width="24" height="24" viewBox="0 0 24 24" fill="none" xmlns="http://www.w3.org/2000/svg">
<rect width="24" height="24" rx="12" fill="#0093DD"/>
<path d="M15.6003 8.4C15.2343 8.4 14.8983 8.19 14.7303 7.866L14.2983 6.996C14.0223 6.45 13.3023 6 12.6903 6H11.3163C10.6983 6 9.9783 6.45 9.7023 6.996L9.2703 7.866C9.1023 8.19 8.7663 8.4 8.4003 8.4C7.0983 8.4 6.0663 9.498 6.1503 10.794L6.4623 15.75C6.5343 16.986 7.2003 18 8.8563 18H15.1443C16.8003 18 17.4603 16.986 17.5383 15.75L17.8503 10.794C17.9343 9.498 16.9023 8.4 15.6003 8.4ZM11.1003 9.15H12.9003C13.1463 9.15 13.3503 9.354 13.3503 9.6C13.3503 9.846 13.1463 10.05 12.9003 10.05H11.1003C10.8543 10.05 10.6503 9.846 10.6503 9.6C10.6503 9.354 10.8543 9.15 11.1003 9.15ZM12.0003 15.672C10.8843 15.672 9.9723 14.766 9.9723 13.644C9.9723 12.522 10.8783 11.616 12.0003 11.616C13.1223 11.616 14.0283 12.522 14.0283 13.644C14.0283 14.766 13.1163 15.672 12.0003 15.672Z" fill="#FDFDFD"/>
</svg>
